<svg xmlns="http://www.w3.org/2000/svg" width="10" height="20" viewBox="0 0 10 20">
  <defs>
    <style>
      .cls-1 {
        fill: #d8d8d8;
        fill-rule: evenodd;
      }
    </style>
  </defs>
  <path id="icon-facebook" class="cls-1" d="M1462.28,6680h-2.24a5.086,5.086,0,0,0-3.7,1.13,4.608,4.608,0,0,0-1.12,3.35v1.4a0.7,0.7,0,0,1-.72.67h-0.77a0.7,0.7,0,0,0-.73.67v2.11a0.7,0.7,0,0,0,.73.67h0.77a0.7,0.7,0,0,1,.72.67v8.66a0.7,0.7,0,0,0,.72.67h3.01a0.7,0.7,0,0,0,.72-0.67v-8.66a0.7,0.7,0,0,1,.72-0.67h1.52a0.8,0.8,0,0,0,.8-0.67l0.24-2.11a0.614,0.614,0,0,0-.65-0.67h-1.91a0.7,0.7,0,0,1-.72-0.67v-1.05a3.118,3.118,0,0,1,.04-0.6,1.092,1.092,0,0,1,.18-0.42,0.748,0.748,0,0,1,.44-0.29,3.614,3.614,0,0,1,.82-0.07h1.13a0.709,0.709,0,0,0,.72-0.68v-2.1A0.7,0.7,0,0,0,1462.28,6680Z" transform="translate(-1453 -6680)"/>
</svg>
