<svg xmlns="http://www.w3.org/2000/svg" width="18" height="16" viewBox="0 0 18 16">
  <defs>
    <style>
      .cls-1 {
        fill: #fff;
        fill-rule: evenodd;
      }
    </style>
  </defs>
  <path id="icon-twitter-footer" class="cls-1" d="M1495.47,6685.26c-0.09.03-.18,0.05-0.27,0.08-0.54.14-.59-0.05-0.2-0.47a3.963,3.963,0,0,0,.47-0.61c0.3-.49.04-0.71-0.48-0.48-0.18.08-.37,0.16-0.55,0.22a2.261,2.261,0,0,1-1.76-.4,3.562,3.562,0,0,0-2.03-.6,3.6,3.6,0,0,0-2.72,1.18,4,4,0,0,0-1.13,2.86c0,0.15.01,0.3,0.02,0.46,0.03,0.26-.38.44-0.93,0.36a10.456,10.456,0,0,1-3.42-1.14,11.01,11.01,0,0,1-2.83-2.19c-0.39-.42-0.92-0.38-1.07.18a4.16,4.16,0,0,0-.13,1.06,4.08,4.08,0,0,0,.47,1.93,4.011,4.011,0,0,0,.54.8c0.34,0.4.29,0.63-.19,0.49a5.031,5.031,0,0,1-.84-0.34v0.02a4.015,4.015,0,0,0,.87,2.57,3.912,3.912,0,0,0,1.25,1.06c0.51,0.26.74,0.4,0.46,0.44a4.361,4.361,0,0,1-.51.03c-0.12,0-.24,0-0.37-0.01-0.2-.02-0.23.42,0.07,0.91a3.978,3.978,0,0,0,.93,1.04,3.7,3.7,0,0,0,1.24.65c0.54,0.16.64,0.45,0.16,0.76a7.29,7.29,0,0,1-3.94,1.12c-0.16,0-.31-0.01-0.46-0.01-0.26-.02-0.09.22,0.41,0.49a10.308,10.308,0,0,0,5.03,1.28,10.864,10.864,0,0,0,3.85-.68,9.633,9.633,0,0,0,3.07-1.83,12.075,12.075,0,0,0,4.02-8.98v-0.26a2.892,2.892,0,0,1,.77-0.94,7.149,7.149,0,0,0,.53-0.57C1496.17,6685.3,1496.01,6685.1,1495.47,6685.26Z" transform="translate(-1478 -6683)"/>
</svg>
