<svg xmlns="http://www.w3.org/2000/svg" width="19" height="14" viewBox="0 0 19 14">
  <defs>
    <style>
      .cls-1 {
        fill: #fff;
        fill-rule: evenodd;
      }
    </style>
  </defs>
  <path id="icon-youtube" class="cls-1" d="M1530.67,6685.25a2.461,2.461,0,0,0-2.05-1.98,93.882,93.882,0,0,0-14.23,0,2.472,2.472,0,0,0-2.06,1.98,34.279,34.279,0,0,0,0,9.49,2.461,2.461,0,0,0,2.05,1.98,90.539,90.539,0,0,0,14.23,0,2.45,2.45,0,0,0,2.05-1.98,22.076,22.076,0,0,0,.34-4.74A22.778,22.778,0,0,0,1530.67,6685.25Zm-11.62,7.86v-6.64c2.01,1.11,4.01,2.22,6.04,3.33C1523.07,6690.91,1521.07,6692.01,1519.05,6693.11Z" transform="translate(-1512 -6683)"/>
</svg>
