<svg xmlns="http://www.w3.org/2000/svg" width="10" height="20" viewBox="0 0 10 20">
  <defs>
    <style>
      .cls-1 {
        fill: #929292;
        fill-rule: evenodd;
      }
    </style>
  </defs>
  <path id="fb" class="cls-1" d="M400.276,1434h-2.24a5.076,5.076,0,0,0-3.693,1.13,4.575,4.575,0,0,0-1.122,3.35v1.4a0.7,0.7,0,0,1-.722.67h-0.774a0.7,0.7,0,0,0-.722.67v2.11a0.7,0.7,0,0,0,.722.67H392.5a0.7,0.7,0,0,1,.722.67v8.66a0.7,0.7,0,0,0,.722.67h3.006a0.7,0.7,0,0,0,.722-0.67v-8.66a0.7,0.7,0,0,1,.722-0.67h1.518a0.8,0.8,0,0,0,.8-0.67l0.24-2.11a0.61,0.61,0,0,0-.646-0.67h-1.909a0.7,0.7,0,0,1-.722-0.67v-1.05a3.5,3.5,0,0,1,.039-0.6,1.145,1.145,0,0,1,.176-0.42,0.746,0.746,0,0,1,.444-0.29,3.594,3.594,0,0,1,.815-0.07h1.131a0.705,0.705,0,0,0,.722-0.68v-2.1A0.7,0.7,0,0,0,400.276,1434Z" transform="translate(-391 -1434)"/>
</svg>
