<svg xmlns="http://www.w3.org/2000/svg" width="19" height="14" viewBox="0 0 19 14">
  <defs>
    <style>
      .cls-1 {
        fill: #929292;
        fill-rule: evenodd;
      }
    </style>
  </defs>
  <path id="yt" class="cls-1" d="M468.669,1439.25a2.463,2.463,0,0,0-2.054-1.98,93.855,93.855,0,0,0-14.228,0,2.462,2.462,0,0,0-2.052,1.98,33.973,33.973,0,0,0,0,9.49,2.461,2.461,0,0,0,2.053,1.98,90.5,90.5,0,0,0,14.227,0,2.463,2.463,0,0,0,2.054-1.98A34.278,34.278,0,0,0,468.669,1439.25Zm-11.622,7.86v-6.64c2.014,1.11,4.014,2.22,6.04,3.33C461.067,1444.91,459.066,1446.01,457.047,1447.11Z" transform="translate(-450 -1437)"/>
</svg>
