<svg xmlns="http://www.w3.org/2000/svg" width="18" height="16" viewBox="0 0 18 16">
  <defs>
    <style>
      .cls-1 {
        fill: #0f7bff;
        fill-rule: evenodd;
      }
    </style>
  </defs>
  <path id="twitter" class="cls-1" d="M433.469,1439.26c-0.089.03-.177,0.05-0.266,0.08-0.543.14-.592-0.05-0.2-0.47a3.817,3.817,0,0,0,.466-0.61c0.3-.49.041-0.71-0.474-0.48a5.8,5.8,0,0,1-.56.22,2.219,2.219,0,0,1-1.755-.41,3.757,3.757,0,0,0-4.755.59,4,4,0,0,0-1.125,2.86,4.307,4.307,0,0,0,.025.46c0.027,0.26-.384.44-0.938,0.36a10.442,10.442,0,0,1-3.416-1.14,11,11,0,0,1-2.832-2.19c-0.392-.42-0.921-0.38-1.067.18a4.252,4.252,0,0,0-.131,1.06,4.087,4.087,0,0,0,.464,1.93,4.341,4.341,0,0,0,.542.8c0.348,0.4.3,0.63-.19,0.49a5.271,5.271,0,0,1-.84-0.34v0.02a4,4,0,0,0,.875,2.57,3.859,3.859,0,0,0,1.253,1.06c0.5,0.26.735,0.4,0.454,0.44a4.336,4.336,0,0,1-.51.03c-0.116,0-.238,0-0.365-0.01-0.2-.02-0.236.42,0.068,0.91a4.061,4.061,0,0,0,.928,1.04,3.69,3.69,0,0,0,1.239.65c0.538,0.16.646,0.45,0.166,0.76a7.311,7.311,0,0,1-3.942,1.12c-0.162,0-.317-0.01-0.465-0.01-0.256-.02-0.084.22,0.412,0.49a10.289,10.289,0,0,0,5.031,1.28,10.858,10.858,0,0,0,3.846-.68,9.654,9.654,0,0,0,3.072-1.83,12.1,12.1,0,0,0,4.025-8.98c0-.1,0-0.18,0-0.26a2.878,2.878,0,0,1,.77-0.94,7.726,7.726,0,0,0,.528-0.57C434.17,1439.3,434.006,1439.1,433.469,1439.26Z" transform="translate(-416 -1437)"/>
</svg>
